<svg id="Logo" xmlns="http://www.w3.org/2000/svg" width="931.023" height="930.022" viewBox="0 0 930 929">
  <metadata><?xpacket begin="﻿" id="W5M0MpCehiHzreSzNTczkc9d"?>
<x:xmpmeta xmlns:x="adobe:ns:meta/" x:xmptk="Adobe XMP Core 5.6-c148 79.164036, 2019/08/13-01:06:57        ">
   <rdf:RDF xmlns:rdf="http://www.w3.org/1999/02/22-rdf-syntax-ns#">
      <rdf:Description rdf:about=""
            xmlns:xmp="http://ns.adobe.com/xap/1.0/">
         <xmp:CreatorTool>Adobe Photoshop 21.0 (Windows)</xmp:CreatorTool>
      </rdf:Description>
   </rdf:RDF>
</x:xmpmeta>
                                                                                                    
                                                                                                    
                                                                                                    
                                                                                                    
                                                                                                    
                                                                                                    
                                                                                                    
                                                                                                    
                                                                                                    
                                                                                                    
                                                                                                    
                                                                                                    
                                                                                                    
                                                                                                    
                                                                                                    
                                                                                                    
                                                                                                    
                                                                                                    
                                                                                                    
                                                                                                    
                           
<?xpacket end="w"?></metadata>
<defs>
    <style>
      .cls-1 {
        fill: #fff;
      }

      .cls-1, .cls-2, .cls-3, .cls-4, .cls-5 {
        fill-rule: evenodd;
      }

      .cls-3 {
        fill: #800d1a;
      }

      .cls-4, .cls-6, .cls-7 {
        fill: #a7a2a2;
      }

      .cls-5 {
        fill: #604dd4;
      }

      .cls-6, .cls-7 {
        font-size: 120px;
      }

      .cls-6 {
        font-family: Averus;
      }

      .cls-7 {
        font-family: "Poor Story";
      }
    </style>
  </defs>
  <g id="Fondo">
    <path id="Forma_2" data-name="Forma 2" class="cls-1" d="M489.9,763.6c115.67,7.968,350.267-206.59,387.565-240.78S631.809,477.752,435.53,355.065C353.642,303.881-3.547,22.616,145.633,239.009c78.1,113.285-91.049-52.518-25.136,99.453,47.994,110.658-170.431-104.653-60.11,73.224C209.5,652.111,294.057,766.03,489.9,763.6ZM-43.438,456.5"/>
    <path id="Forma_2-2" data-name="Forma 2" class="cls-1" d="M453.827,763.538C340.171,771.367,109.658,560.544,73.009,526.95s241.375-44.283,434.237-164.833C587.708,311.823,938.679,35.455,792.1,248.081c-76.739,111.313,89.464-51.6,24.7,97.722-47.159,108.732,167.463-102.832,59.062,71.949C729.339,653.991,646.256,765.927,453.827,763.538ZM977.875,461.781"/>
  </g>
  <path id="Forma_2-3" data-name="Forma 2" class="cls-2" d="M668,316C595.132,575.642,923.25,693.514,408,710c-322.414,10.97-5.277-262.02-139-259-290.837,6.569,18.312-229.08,129-260,121.837-34.035,122.832,4.4,219-85,12-28-49,93-47,97,34-14,73.237,81.434,158-26"/>
  <path id="Forma_2-4" data-name="Forma 2" class="cls-3" d="M685,297C612.132,556.642,940.25,674.514,425,691c-322.414,10.97-5.277-262.02-139-259-290.837,6.569,18.312-229.08,129-260,121.837-34.035,122.832,4.4,219-85,12-28-49,93-47,97,34-14,73.237,81.434,158-26"/>
  <path id="Forma_3" data-name="Forma 3" class="cls-4" d="M305.826,306.875l118.057-15.954s31.7-52.332,26.589-48.924C412.132,262.445,305.826,306.875,305.826,306.875Z"/>
  <g id="Nombre">
    <path id="Forma_1" data-name="Forma 1" class="cls-2" d="M758.848,570.851S-1.6,613.362,280.054,779.424C480.262,887.039,484.459,674.269,766.04,816.413,845.613,727.292,758.848,570.851,758.848,570.851Z"/>
    <path id="Forma_1-2" data-name="Forma 1" class="cls-5" d="M759.937,556s-740.125,41.375-466,203c194.859,104.739,198.943-102.345,473,36C844.385,708.261,759.937,556,759.937,556Z"/>
    <text id="T" class="cls-6" transform="translate(402.754 729.193) rotate(-9.901) scale(2.559)">T</text>
    <text id="code" class="cls-7" transform="translate(568.171 661.632) scale(0.828)">code</text>
  </g>
</svg>
